<svg 
 xmlns="http://www.w3.org/2000/svg"
 xmlns:xlink="http://www.w3.org/1999/xlink"
 width="59px" height="50px">
<path fill-rule="evenodd"  fill="rgb(111 104 254)"
 d="M47.177,41.803 L45.403,41.802 C44.557,41.802 43.868,41.120 43.868,40.281 C43.868,39.875 44.028,39.493 44.318,39.206 C44.608,38.919 44.993,38.761 45.403,38.761 L47.177,38.761 C49.537,38.761 51.750,37.842 53.410,36.172 C55.070,34.504 55.964,32.297 55.928,29.959 C55.855,25.254 51.876,21.427 47.057,21.427 L44.577,21.427 L44.577,18.293 C44.577,9.921 37.766,3.079 29.393,3.041 L29.322,3.041 C21.472,3.041 14.948,8.865 14.148,16.587 L14.018,17.847 L12.743,17.947 C7.320,18.377 3.071,22.941 3.071,28.337 C3.071,34.077 7.786,38.753 13.582,38.761 L13.713,38.761 C14.561,38.761 15.250,39.443 15.250,40.281 C15.250,41.120 14.561,41.802 13.715,41.802 L13.598,41.803 C6.099,41.803 -0.000,35.762 -0.000,28.337 C-0.000,24.931 1.287,21.679 3.625,19.183 C5.537,17.142 7.991,15.756 10.722,15.174 L11.253,15.061 L11.361,14.534 C12.138,10.729 14.091,7.332 17.007,4.709 C20.384,1.672 24.758,-0.000 29.323,-0.000 C39.157,-0.000 47.375,7.918 47.642,17.651 L47.662,18.372 L48.387,18.446 C54.437,19.057 59.000,24.064 59.000,30.094 C59.000,36.550 53.696,41.803 47.177,41.803 ZM41.151,31.226 L40.696,31.440 C39.207,32.141 37.425,31.837 36.261,30.684 L31.095,25.568 L31.095,48.479 C31.095,49.318 30.406,50.000 29.559,50.000 C28.712,50.000 28.024,49.318 28.024,48.479 L28.024,25.568 L22.858,30.684 C22.121,31.413 21.142,31.815 20.100,31.815 C19.510,31.815 18.945,31.689 18.420,31.441 L17.967,31.226 L29.559,19.746 L41.151,31.226 Z"/>
</svg>